#N canvas 1 88 450 318 10;
#X text 54 47 placeholder help patch;
#N canvas 297 145 494 344 META 0;
#X text 12 95 HELP_PATCH_AUTHORS "pd meta" information added by Jonathan
Wilkes for Pd version 0.42.;
#X text 12 35 LICENSE Tcl/Tk;
#X text 12 75 AUTHOR Guenter Geiger;
#X text 12 55 DESCRIPTION;
#X text 12 15 KEYWORDS signal;
#X restore 396 288 pd META;
#X obj 140 126 shuffle~;
