#N canvas 202 49 506 289 10;
#X floatatom 32 76 0 0 0 0 - - -;
#X floatatom 32 137 0 0 0 0 - - -;
#X obj 188 93 sig~ 220;
#X floatatom 188 74 0 0 0 0 - - -;
#X obj 188 150 1/x~;
#X obj 188 192 clip~ -1 1;
#X obj 181 222 dac~;
#X text 25 267 (C) Guenter Geiger;
#X obj 188 111 phasor~;
#X obj 188 129 +~ 1;
#X obj 188 173 -~ 0.5;
#X text 184 54 the signal version doesnt look useful to me;
#X text 34 54 To make life easier;
#X text 32 12 1/x takes the inverse of the input;
#X obj 32 107 inv;
#N canvas 408 102 494 344 META 0;
#X text 12 125 HELP_PATCH_AUTHORS "pd meta" information added by Jonathan
Wilkes for Pd version 0.42.;
#X text 12 25 LICENSE Tcl/Tk;
#X text 12 105 AUTHOR Guenter Geiger;
#X text 12 45 DESCRIPTION perform 1/x using float from inlet;
#X text 12 65 INLET_0 float;
#X text 12 85 OUTLET_0 float;
#X text 12 5 KEYWORDS control;
#X restore 387 267 pd META;
#X connect 0 0 14 0;
#X connect 2 0 8 0;
#X connect 3 0 2 0;
#X connect 4 0 10 0;
#X connect 5 0 6 0;
#X connect 5 0 6 1;
#X connect 8 0 9 0;
#X connect 9 0 4 0;
#X connect 10 0 5 0;
#X connect 14 0 1 0;
